<svg width="114" height="28" viewBox="0 0 114 28" fill="none" xmlns="http://www.w3.org/2000/svg">
<path d="M1.48 8.36C1.29333 8.06667 1.12 7.66667 0.96 7.16C0.8 6.65333 0.72 6.12 0.72 5.56C0.72 4.52 0.946667 3.77333 1.4 3.32C1.88 2.86667 2.49333 2.64 3.24 2.64H20.68C20.8667 2.93333 21.04 3.33333 21.2 3.84C21.36 4.34667 21.44 4.88 21.44 5.44C21.44 6.48 21.2 7.22667 20.72 7.68C20.2667 8.13333 19.6667 8.36 18.92 8.36H14.48V26.84C14.1867 26.92 13.72 27 13.08 27.08C12.4667 27.16 11.8533 27.2 11.24 27.2C10.6267 27.2 10.08 27.1467 9.6 27.04C9.14667 26.96 8.76 26.8 8.44 26.56C8.12 26.32 7.88 25.9867 7.72 25.56C7.56 25.1333 7.48 24.5733 7.48 23.88V8.36H1.48ZM33.9913 26.4C33.6179 26.72 33.1113 26.9733 32.4712 27.16C31.8312 27.3733 31.0712 27.48 30.1912 27.48C29.0979 27.48 28.1512 27.32 27.3512 27C26.5512 26.7067 26.0179 26.28 25.7512 25.72C25.4579 25.08 25.1112 24.0667 24.7112 22.68C24.3379 21.2933 23.9646 19.7733 23.5912 18.12C23.2179 16.4667 22.8579 14.7867 22.5112 13.08C22.1912 11.3733 21.9379 9.86667 21.7512 8.56C22.1246 8.18667 22.6179 7.86667 23.2312 7.6C23.8712 7.30667 24.5646 7.16 25.3112 7.16C26.2446 7.16 27.0046 7.37333 27.5912 7.8C28.2046 8.2 28.5779 8.90667 28.7112 9.92C28.9779 11.9467 29.2046 13.6267 29.3912 14.96C29.5779 16.2667 29.7246 17.3467 29.8312 18.2C29.9646 19.0267 30.0579 19.6667 30.1112 20.12C30.1912 20.5467 30.2579 20.8933 30.3112 21.16H30.4712C30.5512 20.7333 30.6846 20.12 30.8712 19.32C31.0846 18.4933 31.3246 17.56 31.5913 16.52C31.8579 15.48 32.1379 14.36 32.4313 13.16C32.7246 11.9333 33.0179 10.72 33.3112 9.52C33.8446 9.22667 34.3646 9 34.8712 8.84C35.4046 8.68 36.0579 8.6 36.8312 8.6C37.7646 8.6 38.5646 8.74667 39.2312 9.04C39.8979 9.33333 40.3246 9.78667 40.5112 10.4C40.8312 11.5733 41.1379 12.72 41.4313 13.84C41.7246 14.9333 41.9913 15.96 42.2313 16.92C42.4713 17.8533 42.6846 18.6933 42.8712 19.44C43.0579 20.16 43.1913 20.7333 43.2713 21.16H43.4713C43.7646 19.1067 44.0446 16.9733 44.3112 14.76C44.6046 12.5467 44.8713 10.2933 45.1113 8C45.5912 7.70667 46.0979 7.49333 46.6313 7.36C47.1646 7.22667 47.6979 7.16 48.2313 7.16C49.1646 7.16 49.9379 7.36 50.5513 7.76C51.1646 8.16 51.4713 8.85333 51.4713 9.84C51.4713 10.2667 51.4046 10.9067 51.2713 11.76C51.1379 12.6133 50.9646 13.5733 50.7513 14.64C50.5379 15.7067 50.2846 16.8267 49.9913 18C49.7246 19.1733 49.4446 20.3067 49.1512 21.4C48.8846 22.4933 48.6179 23.48 48.3513 24.36C48.1113 25.24 47.8979 25.92 47.7113 26.4C47.3379 26.72 46.7646 26.9733 45.9912 27.16C45.2179 27.3733 44.3913 27.48 43.5113 27.48C41.2712 27.48 39.9512 26.92 39.5513 25.8C39.3912 25.32 39.1912 24.72 38.9512 24C38.7113 23.2533 38.4579 22.44 38.1912 21.56C37.9246 20.68 37.6713 19.7733 37.4313 18.84C37.1913 17.88 36.9912 16.96 36.8312 16.08C36.6446 17.0133 36.4179 17.9867 36.1512 19C35.8846 19.9867 35.6046 20.96 35.3112 21.92C35.0446 22.8533 34.7913 23.72 34.5513 24.52C34.3113 25.2933 34.1246 25.92 33.9913 26.4ZM63.6319 27.64C62.0585 27.64 60.5919 27.4267 59.2319 27C57.8985 26.5467 56.7252 25.88 55.7119 25C54.7252 24.12 53.9385 23.0133 53.3519 21.68C52.7919 20.3467 52.5119 18.7867 52.5119 17C52.5119 15.24 52.7919 13.7333 53.3519 12.48C53.9385 11.2 54.6985 10.16 55.6319 9.36C56.5652 8.53333 57.6319 7.93333 58.8319 7.56C60.0319 7.16 61.2585 6.96 62.5119 6.96C63.9252 6.96 65.2052 7.17333 66.3519 7.6C67.5252 8.02667 68.5252 8.61333 69.3519 9.36C70.2052 10.1067 70.8585 11 71.3119 12.04C71.7919 13.08 72.0319 14.2133 72.0319 15.44C72.0319 16.3467 71.7785 17.04 71.2719 17.52C70.7652 18 70.0585 18.3067 69.1519 18.44L59.2719 19.92C59.5652 20.8 60.1652 21.4667 61.0719 21.92C61.9785 22.3467 63.0185 22.56 64.1919 22.56C65.2852 22.56 66.3119 22.4267 67.2719 22.16C68.2585 21.8667 69.0585 21.5333 69.6719 21.16C70.0985 21.4267 70.4585 21.8 70.7519 22.28C71.0452 22.76 71.1919 23.2667 71.1919 23.8C71.1919 25 70.6319 25.8933 69.5119 26.48C68.6585 26.9333 67.6985 27.24 66.6319 27.4C65.5652 27.56 64.5652 27.64 63.6319 27.64ZM62.5119 11.92C61.8719 11.92 61.3119 12.0267 60.8319 12.24C60.3785 12.4533 60.0052 12.7333 59.7119 13.08C59.4185 13.4 59.1919 13.7733 59.0319 14.2C58.8985 14.6 58.8185 15.0133 58.7919 15.44L65.6319 14.32C65.5519 13.7867 65.2585 13.2533 64.7519 12.72C64.2452 12.1867 63.4985 11.92 62.5119 11.92ZM84.385 27.64C82.8117 27.64 81.345 27.4267 79.985 27C78.6517 26.5467 77.4783 25.88 76.465 25C75.4783 24.12 74.6917 23.0133 74.105 21.68C73.545 20.3467 73.265 18.7867 73.265 17C73.265 15.24 73.545 13.7333 74.105 12.48C74.6917 11.2 75.4517 10.16 76.385 9.36C77.3183 8.53333 78.385 7.93333 79.585 7.56C80.785 7.16 82.0117 6.96 83.265 6.96C84.6783 6.96 85.9583 7.17333 87.105 7.6C88.2783 8.02667 89.2783 8.61333 90.105 9.36C90.9583 10.1067 91.6117 11 92.065 12.04C92.545 13.08 92.785 14.2133 92.785 15.44C92.785 16.3467 92.5317 17.04 92.025 17.52C91.5183 18 90.8117 18.3067 89.905 18.44L80.025 19.92C80.3183 20.8 80.9183 21.4667 81.825 21.92C82.7317 22.3467 83.7717 22.56 84.945 22.56C86.0383 22.56 87.065 22.4267 88.025 22.16C89.0117 21.8667 89.8117 21.5333 90.425 21.16C90.8517 21.4267 91.2117 21.8 91.505 22.28C91.7983 22.76 91.945 23.2667 91.945 23.8C91.945 25 91.385 25.8933 90.265 26.48C89.4117 26.9333 88.4517 27.24 87.385 27.4C86.3183 27.56 85.3183 27.64 84.385 27.64ZM83.265 11.92C82.625 11.92 82.065 12.0267 81.585 12.24C81.1317 12.4533 80.7583 12.7333 80.465 13.08C80.1717 13.4 79.945 13.7733 79.785 14.2C79.6517 14.6 79.5717 15.0133 79.545 15.44L86.385 14.32C86.305 13.7867 86.0117 13.2533 85.505 12.72C84.9983 12.1867 84.2517 11.92 83.265 11.92ZM113.858 23.48C113.725 24.7333 113.351 25.6933 112.738 26.36C112.151 27.0267 111.285 27.36 110.138 27.36C109.285 27.36 108.525 27.16 107.858 26.76C107.191 26.3333 106.471 25.6267 105.698 24.64L101.738 19.68V26.96C101.445 27.0133 101.005 27.08 100.418 27.16C99.8581 27.2667 99.2848 27.32 98.6981 27.32C98.1115 27.32 97.5781 27.28 97.0981 27.2C96.6448 27.12 96.2581 26.96 95.9381 26.72C95.6181 26.48 95.3648 26.16 95.1781 25.76C95.0181 25.3333 94.9381 24.7867 94.9381 24.12V0.959999C95.2315 0.879999 95.6581 0.799999 96.2181 0.72C96.8048 0.613333 97.3915 0.559999 97.9781 0.559999C98.5648 0.559999 99.0848 0.599999 99.5381 0.679998C100.018 0.759998 100.418 0.919999 100.738 1.16C101.058 1.4 101.298 1.73333 101.458 2.16C101.645 2.56 101.738 3.09333 101.738 3.76V14.32L108.618 7.28C110.005 7.28 111.111 7.58667 111.938 8.2C112.791 8.81333 113.218 9.58667 113.218 10.52C113.218 10.92 113.151 11.2933 113.018 11.64C112.885 11.96 112.671 12.2933 112.378 12.64C112.111 12.9867 111.751 13.36 111.298 13.76C110.871 14.1333 110.365 14.5733 109.778 15.08L107.458 17.08L113.858 23.48Z" fill="#61A0FF"/>
</svg>
